HIERARCHY
ROOT Hips
{
	OFFSET 0.000000 0.000000 0.000000
	CHANNELS 6 Xposition Yposition Zposition Xrotation Yrotation Zrotation
	JOINT LeftUpLeg_virtual
	{
		OFFSET 0.000000 0.000000 0.000000
		CHANNELS 3 Xrotation Yrotation Zrotation
		JOINT LeftUpLeg
		{
			OFFSET 11.394100 -6.187798 -0.413800
			CHANNELS 3 Xrotation Yrotation Zrotation
			JOINT LeftLeg
			{
				OFFSET 0.430247 -32.302673 3.732800
				CHANNELS 3 Xrotation Yrotation Zrotation
				JOINT LeftFoot
				{
					OFFSET -0.430247 -48.264931 -6.423300
					CHANNELS 3 Xrotation Yrotation Zrotation
					JOINT LeftToeBase
					{
						OFFSET 4.230900 -16.068199 23.438400
						CHANNELS 3 Xrotation Yrotation Zrotation
						JOINT LeftToe_End
						{
							OFFSET 4.510700 0.695400 19.974600
							CHANNELS 3 Xrotation Yrotation Zrotation
							End Site
							{
								OFFSET 0 0 0
							}
						}
					}
				}
			}
		}
	}
	JOINT RightUpLeg_virtual
	{
		OFFSET 0.000000 0.000000 0.000000
		CHANNELS 3 Xrotation Yrotation Zrotation
		JOINT RightUpLeg
		{
			OFFSET -11.333700 -6.187798 -0.413800
			CHANNELS 3 Xrotation Yrotation Zrotation
			JOINT RightLeg
			{
				OFFSET -0.430392 -32.302628 3.733000
				CHANNELS 3 Xrotation Yrotation Zrotation
				JOINT RightFoot
				{
					OFFSET 0.430392 -48.264973 -6.423500
					CHANNELS 3 Xrotation Yrotation Zrotation
					JOINT RightToeBase
					{
						OFFSET -4.230900 -16.068199 23.438400
						CHANNELS 3 Xrotation Yrotation Zrotation
						JOINT RightToe_End
						{
							OFFSET -4.510700 0.695400 19.974600
							CHANNELS 3 Xrotation Yrotation Zrotation
							End Site
							{
								OFFSET 0 0 0
							}
						}
					}
				}
			}
		}
	}
	JOINT Spine_virtual
	{
		OFFSET 0.000000 0.000000 0.000000
		CHANNELS 3 Xrotation Yrotation Zrotation
		JOINT Spine
		{
			OFFSET -0.002400 12.777504 0.315300
			CHANNELS 3 Xrotation Yrotation Zrotation
			JOINT Spine1
			{
				OFFSET -0.002067 5.816869 0.032633
				CHANNELS 3 Xrotation Yrotation Zrotation
				JOINT Spine1_split
				{
					OFFSET -0.002067 5.816869 0.032633
					CHANNELS 3 Xrotation Yrotation Zrotation
					JOINT Spine2
					{
						OFFSET -0.002067 5.816869 0.032633
						CHANNELS 3 Xrotation Yrotation Zrotation
						JOINT Neck_virtual
						{
							OFFSET 0.000000 0.000000 0.000000
							CHANNELS 3 Xrotation Yrotation Zrotation
							JOINT Neck
							{
								OFFSET -0.003700 21.199493 -0.826900
								CHANNELS 3 Xrotation Yrotation Zrotation
								JOINT Head
								{
									OFFSET 0.000000 20.442200 4.834800
									CHANNELS 3 Xrotation Yrotation Zrotation
									JOINT HeadTop_End
									{
										OFFSET 0.000000 34.668396 4.968400
										CHANNELS 3 Xrotation Yrotation Zrotation
										End Site
										{
											OFFSET 0 0 0
										}
									}
								}
							}
						}
						JOINT LeftShoulder_virtual
						{
							OFFSET 0.000000 0.000000 0.000000
							CHANNELS 3 Xrotation Yrotation Zrotation
							JOINT LeftShoulder
							{
								OFFSET 3.288150 8.794197 -1.372250
								CHANNELS 3 Xrotation Yrotation Zrotation
								JOINT LeftShoulder_split
								{
									OFFSET 3.288150 8.794197 -1.372250
									CHANNELS 3 Xrotation Yrotation Zrotation
									JOINT LeftArm
									{
										OFFSET 11.953299 -2.279007 -0.146200
										CHANNELS 3 Xrotation Yrotation Zrotation
										JOINT LeftForeArm
										{
											OFFSET 18.448900 0.000000 0.000000
											CHANNELS 3 Xrotation Yrotation Zrotation
											JOINT LeftHand
											{
												OFFSET 29.527798 0.000000 0.000000
												CHANNELS 3 Xrotation Yrotation Zrotation
												End Site
												{
													OFFSET 0 0 0
												}
											}
										}
									}
								}
							}
						}
						JOINT RightShoulder_virtual
						{
							OFFSET 0.000000 0.000000 0.000000
							CHANNELS 3 Xrotation Yrotation Zrotation
							JOINT RightShoulder
							{
								OFFSET -3.249400 8.794197 -1.372250
								CHANNELS 3 Xrotation Yrotation Zrotation
								JOINT RightShoulder_split
								{
									OFFSET -3.249400 8.794197 -1.372250
									CHANNELS 3 Xrotation Yrotation Zrotation
									JOINT RightArm
									{
										OFFSET -11.953299 -2.279007 -0.146200
										CHANNELS 3 Xrotation Yrotation Zrotation
										JOINT RightForeArm
										{
											OFFSET -18.448900 0.000000 0.000000
											CHANNELS 3 Xrotation Yrotation Zrotation
											JOINT RightHand
											{
												OFFSET -29.527802 0.000000 0.000000
												CHANNELS 3 Xrotation Yrotation Zrotation
												End Site
												{
													OFFSET 0 0 0
												}
											}
										}
									}
								}
							}
						}
					}
				}
			}
		}
	}
}
MOTION
Frames: 5
Frame Time: 0.03333333
-2.058742 65.403877 8.953442 0.000000 0.000000 0.000000 32.462349 -55.543051 29.000614 -83.354795 -6.234114 22.262903 85.990074 -8.964253 0.297915 -20.057981 1.123856 -11.375851 -2.468449 -0.730714 2.507123 0.000000 0.000000 0.000000 34.600946 -58.790450 32.119480 -83.631418 1.294016 -31.883374 87.093340 5.479625 0.710853 -28.082881 -2.247737 10.927209 3.419842 1.889296 -0.882691 0.000000 0.000000 0.000000 36.478695 -54.841337 30.730087 8.170635 -1.641420 -2.145865 4.174866 -3.015032 -2.701486 1.078645 0.549662 0.622246 0.000000 0.000000 0.000000 3.254015 -3.445869 -2.110788 -4.006005 14.563533 -7.238262 -34.237563 34.988686 4.507471 0.000000 0.000000 0.000000 3.455510 -3.458196 -2.449633 4.846333 -9.335028 -6.182861 -4.098273 -3.330673 0.797802 -59.353463 2.725853 -23.048707 20.121240 -22.342080 16.824972 0.000000 0.000000 0.000000 3.621870 -3.162401 -2.191340 5.849263 7.635247 13.533867 3.958598 4.280399 -0.629311 -10.081464 -3.073538 53.757062 -16.975720 40.312487 8.609095 0.000000 0.000000 0.000000 
-1.709274 61.944416 8.114632 0.000000 0.000000 0.000000 33.830368 -54.756459 29.791315 -89.150668 -9.935693 22.070074 91.109649 -9.986592 0.115370 -19.850440 0.989547 -12.462774 -2.903338 -0.685186 2.153158 0.000000 0.000000 0.000000 36.180946 -57.868409 33.035511 -90.076910 3.321843 -32.572267 92.234608 6.544932 0.705620 -27.688310 -1.676192 10.296963 3.342854 1.964324 -0.800794 0.000000 0.000000 0.000000 37.967638 -54.236838 31.597545 7.568162 -1.656891 -1.966278 4.435159 -2.832609 -2.632350 1.188276 0.347110 0.651599 0.000000 0.000000 0.000000 3.532217 -3.277581 -2.046917 -2.704312 15.193254 -8.350692 -34.636688 33.857036 3.842042 0.000000 0.000000 0.000000 3.705508 -3.289618 -2.438566 5.195123 -9.557724 -6.149111 -3.822941 -3.237752 1.069246 -60.763514 1.408408 -23.230356 21.109623 -21.882321 16.780921 0.000000 0.000000 0.000000 3.888793 -2.961710 -2.118749 6.246981 7.903913 13.786888 4.096241 4.366778 -0.764377 -9.847767 -1.446832 52.010029 -17.648838 41.955653 9.288847 0.000000 0.000000 0.000000 
-1.396315 58.585796 7.327473 0.000000 0.000000 0.000000 34.681655 -54.086161 30.031386 -94.432372 -13.566026 21.804250 95.742552 -11.150893 0.147265 -19.511311 0.641402 -13.528153 -3.455214 -0.595405 1.739733 0.000000 0.000000 0.000000 37.315451 -57.155843 33.430310 -96.273552 5.405137 -32.865668 96.985838 7.262393 1.021470 -26.530265 -1.548497 9.458554 3.319825 1.882319 -0.675809 0.000000 0.000000 0.000000 39.055029 -53.857633 32.092812 7.020211 -1.617504 -1.780754 4.679001 -2.599234 -2.558127 1.164177 0.097636 0.762893 0.000000 0.000000 0.000000 3.827828 -3.052782 -1.984240 -1.208902 15.796105 -9.440273 -34.505747 32.914473 3.027795 0.000000 0.000000 0.000000 3.970515 -3.071393 -2.430490 5.564272 -9.567331 -6.163484 -3.557595 -3.094972 1.218416 -61.904176 0.306412 -23.582068 22.200989 -21.452321 16.605331 0.000000 0.000000 0.000000 4.155627 -2.718892 -2.059654 6.667936 8.109030 14.074986 4.248944 4.371944 -0.839460 -9.319789 0.015047 50.003999 -18.011019 42.982510 9.822756 0.000000 0.000000 0.000000 
-1.129468 55.466545 6.564968 0.000000 0.000000 0.000000 35.105659 -53.483639 29.855177 -99.169340 -17.030503 21.506447 99.781113 -12.393928 0.369199 -18.933923 0.066321 -14.571681 -3.990495 -0.479945 1.332245 0.000000 0.000000 0.000000 38.019459 -56.681066 33.458966 -102.054979 7.482440 -32.899157 101.361018 7.795907 1.517999 -24.509125 -1.780116 8.675541 3.011529 1.706967 -0.564777 0.000000 0.000000 0.000000 39.895036 -53.646266 32.374540 6.521510 -1.522053 -1.611336 4.906397 -2.357488 -2.512043 0.952202 -0.273119 0.886800 0.000000 0.000000 0.000000 4.115815 -2.804918 -1.947174 0.437107 16.398960 -10.479729 -34.027883 32.086173 2.201216 0.000000 0.000000 0.000000 4.238917 -2.837122 -2.443747 5.955547 -9.352301 -6.207312 -3.269956 -2.946906 1.208574 -62.790250 -0.611022 -24.022672 23.406906 -20.998180 16.336976 0.000000 0.000000 0.000000 4.408110 -2.477119 -2.038165 7.108817 8.283514 14.501086 4.448014 4.309402 -0.828294 -8.662271 1.111722 47.891108 -18.002891 43.568653 10.175734 0.000000 0.000000 0.000000 
-0.970872 52.683788 5.890263 0.000000 0.000000 0.000000 35.227452 -52.872098 29.403264 -103.391661 -20.257334 21.154329 103.122449 -13.651952 0.708568 -18.041733 -0.682551 -15.542533 -4.341806 -0.362460 0.960651 0.000000 0.000000 0.000000 38.368639 -56.300204 33.236517 -107.277383 9.553374 -32.701569 105.152613 8.337126 1.895429 -21.769193 -2.204681 8.378100 2.146663 1.533921 -0.577913 0.000000 0.000000 0.000000 40.500522 -53.513426 32.467888 6.054219 -1.393129 -1.471156 5.124560 -2.143837 -2.500840 0.792808 -0.703441 1.009287 0.000000 0.000000 0.000000 4.383270 -2.574593 -1.940820 2.150250 17.012372 -11.467095 -33.427878 31.313310 1.491872 0.000000 0.000000 0.000000 4.506946 -2.618959 -2.470740 6.379153 -8.959299 -6.276471 -2.957002 -2.864198 1.022262 -63.416414 -1.408946 -24.519447 24.770526 -20.646204 16.096801 0.000000 0.000000 0.000000 4.658540 -2.274265 -2.067535 7.564494 8.480906 15.125215 4.684469 4.256138 -0.797006 -8.039852 1.793526 45.695793 -17.622841 43.935728 10.355810 0.000000 0.000000 0.000000 
